<?xml version="1.0" encoding="UTF-8"?>
<svg width="93px" height="19px" viewBox="0 0 93 19" version="1.1" xmlns="http://www.w3.org/2000/svg" xmlns:xlink="http://www.w3.org/1999/xlink">
    <!-- Generator: Sketch 64 (93537) - https://sketch.com -->
    <title>logo_ia_white</title>
    <desc>Created with Sketch.</desc>
    <g id="02-xs-mobile-425-(0-599)" stroke="none" stroke-width="1" fill="none" fill-rule="evenodd">
        <g transform="translate(-56.000000, -97.000000)" fill="#FFFFFF" fill-rule="nonzero" id="nav/Navbar">
            <g transform="translate(0.000000, 78.000000)">
                <g id="logo/white/noTagline-Copy" transform="translate(56.000000, 19.000000)">
                    <g id="logo_ia_white" transform="translate(-0.000000, -0.000000)">
                        <path d="M4.6665,15.0319115 C4.41872124,15.073208 4.17094248,14.9493186 4.0470531,14.7428363 C3.88186726,14.4124646 3.8405708,14.0820929 3.88186726,13.7104248 L3.88186726,7.18558407 C3.88186726,6.11187611 3.01464159,5.24465044 1.94093363,5.24465044 L0,5.24465044 L0,14.8667257 C0,17.3445133 1.15630088,18.5834071 3.38630973,18.5834071 C3.96446018,18.6247035 4.58390708,18.5421106 5.16205752,18.3769248 L5.20335398,18.3769248 L5.20335398,14.9493186 L5.12076106,14.990615 C4.95557522,15.0319115 4.83168584,15.0319115 4.6665,15.0319115" id="Path"></path>
                        <path d="M6.56613717,4.08834956 C6.89650885,3.88186726 7.18558407,3.55149558 7.35076991,3.17982743 C7.47465929,2.89075221 7.55725221,2.56038053 7.55725221,2.23000885 C7.55725221,1.65185841 7.30947345,1.07370796 6.89650885,0.660743363 C6.07057965,-0.206482301 4.70779646,-0.206482301 3.8405708,0.619446903 L3.79927434,0.660743363 C3.38630973,1.07370796 3.13853097,1.65185841 3.13853097,2.23000885 C3.13853097,3.42760619 4.08834956,4.41872124 5.32724336,4.4600177 C5.74020796,4.4600177 6.19446903,4.33612832 6.56613717,4.08834956" id="Path"></path>
                        <path d="M20.6895265,14.7015398 C20.5656372,14.3711681 20.5243407,14.0407965 20.5243407,13.7104248 L20.5243407,5.2859469 L16.6424735,5.2859469 L16.6424735,6.73132301 C16.4772876,6.40095133 16.2295088,6.11187611 15.8991372,5.90539381 C15.4448761,5.57502212 14.9493186,5.36853982 14.4124646,5.24465044 C13.9169071,5.12076106 13.4213496,5.0794646 12.925792,5.0794646 C12.0585664,5.0794646 11.2326372,5.24465044 10.4480044,5.57502212 C9.70466814,5.90539381 9.00262832,6.40095133 8.42447788,7.02039823 C7.84632743,7.63984513 7.39206637,8.38318142 7.06169469,9.20911062 C6.40095133,10.9022655 6.40095133,12.7606062 7.06169469,14.4537611 C7.35076991,15.2383938 7.80503097,15.9817301 8.42447788,16.6424735 C9.00262832,17.2619204 9.70466814,17.7574779 10.4480044,18.0878496 C11.2326372,18.4182212 12.0585664,18.6247035 12.925792,18.5834071 C14.8667257,18.5834071 16.2708053,17.9639602 17.138031,16.8076593 C17.3445133,17.3445133 17.7574779,17.7987743 18.2530354,18.0878496 C18.9137788,18.4182212 19.6158186,18.5834071 20.3591549,18.5421106 C20.9373053,18.5421106 21.5154558,18.5008142 22.0523097,18.3356283 L22.0936062,18.3356283 L22.0936062,15.0319115 L21.3915664,15.073208 C21.1024912,15.1558009 20.8134159,14.9493186 20.6895265,14.7015398 M16.3121018,13.5452389 C15.9817301,14.0407965 15.527469,14.4124646 14.990615,14.6602434 C14.536354,14.8667257 14.0820929,14.9493186 13.5865354,14.990615 C11.8520841,14.990615 10.406708,13.5865354 10.406708,11.8107876 C10.406708,10.0763363 11.8107876,8.63096018 13.5865354,8.63096018 L13.5865354,8.63096018 C14.0820929,8.63096018 14.536354,8.75484956 14.990615,8.96133186 C15.527469,9.20911062 15.9817301,9.62207522 16.3121018,10.1176327 C17.0554381,11.1500442 17.0554381,12.5541239 16.3121018,13.5865354" id="Shape"></path>
                        <path d="M36.2169956,14.7015398 C36.0931062,14.3711681 36.0105133,14.0407965 36.0518097,13.6691283 L36.0518097,10.406708 C36.0518097,8.7135531 35.6388451,7.39206637 34.8129159,6.44224779 C33.9043938,5.45113274 32.6242035,4.91427876 31.2614204,4.99687168 C30.4767876,4.99687168 29.7334513,5.16205752 29.0314115,5.53372566 C28.535854,5.78150442 28.0815929,6.15317257 27.7925177,6.64873009 L27.7925177,0.330371681 L23.869354,0.330371681 L23.869354,18.3356283 L27.7512212,18.3356283 L27.7512212,11.0261549 C27.7512212,10.3654115 27.9577035,9.7459646 28.4119646,9.25040708 C28.8249292,8.79614602 29.4030796,8.54836726 30.0225265,8.54836726 C30.600677,8.5070708 31.1788274,8.75484956 31.591792,9.16781416 C31.9634602,9.66337168 32.1699425,10.2828186 32.128646,10.9022655 L32.128646,14.7428363 C32.0873496,15.527469 32.2525354,16.3121018 32.6242035,17.0554381 C32.9132788,17.5509956 33.3262434,17.9639602 33.8630973,18.2117389 C34.3999513,18.4595177 34.9781018,18.5421106 35.5562522,18.5421106 C36.0931062,18.5834071 36.6712566,18.5008142 37.2081106,18.3769248 L37.2494071,18.3769248 L37.2494071,14.990615 L36.795146,15.0319115 C36.5886637,14.990615 36.3821814,14.9080221 36.2169956,14.7015398" id="Path"></path>
                        <path d="M50.5881637,6.89650885 C49.9274204,6.27706195 49.1427876,5.74020796 48.2755619,5.40983628 C47.4083363,5.03816814 46.4585177,4.8729823 45.5499956,4.8729823 C44.600177,4.8729823 43.6503584,5.03816814 42.7831327,5.40983628 C41.0486814,6.07057965 39.6858982,7.43336283 38.9838584,9.1265177 C38.2405221,10.8196726 38.2405221,12.7606062 38.9838584,14.4537611 C39.3555265,15.2796903 39.8510841,16.064323 40.5118274,16.6837699 C41.1725708,17.3445133 41.9572035,17.8400708 42.8244292,18.1704425 C43.6916549,18.5421106 44.6414735,18.7072965 45.591292,18.7072965 C46.5411106,18.7072965 47.4496327,18.5421106 48.3168584,18.1704425 C49.1840841,17.8400708 49.9687168,17.3032168 50.6294602,16.6837699 C53.3137301,14.0820929 53.4376195,9.78726106 50.8359425,7.10299115 C50.7120531,7.02039823 50.6294602,6.97910177 50.5881637,6.89650885 M48.2342655,13.6278319 C47.9038938,14.1233894 47.4496327,14.536354 46.9127788,14.7841327 C46.4585177,14.990615 46.0042566,15.1145044 45.5086991,15.1145044 C45.0131416,15.1145044 44.5588805,14.990615 44.1046195,14.7841327 C43.5677655,14.536354 43.1135044,14.1233894 42.8244292,13.6278319 C41.9572035,12.3063451 42.1223894,10.5718938 43.1960973,9.45688938 C44.4349912,8.17669912 46.4585177,8.17669912 47.738708,9.41559292 C48.0277832,9.70466814 48.2342655,10.0350398 48.3994513,10.3654115 C48.6059336,10.8196726 48.6885265,11.2739336 48.729823,11.7694912 C48.7711195,12.4302345 48.6059336,13.0909779 48.2342655,13.6278319" id="Shape"></path>
                        <path d="M62.2750619,4.99687168 C61.4904292,4.99687168 60.6645,5.16205752 59.9624602,5.53372566 C59.4256062,5.82280088 58.9713451,6.27706195 58.6409735,6.81391593 L58.6409735,5.24465044 L54.7591062,5.24465044 L54.7591062,18.2943319 L58.6409735,18.2943319 L58.6409735,11.9759735 C58.599677,11.0674513 58.9300487,10.2002257 59.5081991,9.58077876 C60.1689425,8.96133186 61.0361681,8.67225664 61.9446903,8.7135531 C62.3576549,8.7135531 62.7706195,8.75484956 63.1835841,8.83744248 L63.266177,8.83744248 L63.266177,5.12076106 L63.2248805,5.12076106 C62.8945088,5.03816814 62.5641372,4.99687168 62.2750619,4.99687168" id="Path"></path>
                        <path d="M72.599177,4.99687168 C71.8145442,4.99687168 70.988615,5.16205752 70.2865752,5.53372566 C69.7497212,5.82280088 69.2954602,6.27706195 68.9650885,6.81391593 L68.9650885,5.24465044 L65.0832212,5.24465044 L65.0832212,18.2943319 L68.9650885,18.2943319 L68.9650885,11.9759735 C68.923792,11.0674513 69.2541637,10.2002257 69.8323142,9.58077876 C70.4930575,8.96133186 71.3602832,8.67225664 72.2688053,8.7135531 C72.6817699,8.7135531 73.0947345,8.75484956 73.5076991,8.83744248 L73.590292,8.83744248 L73.590292,5.12076106 L73.5489956,5.12076106 C73.2599204,5.03816814 72.9295487,4.99687168 72.599177,4.99687168" id="Path"></path>
                        <path d="M87.672385,9.1265177 C87.3007168,8.3005885 86.8051593,7.51595575 86.1444159,6.89650885 C85.4836726,6.27706195 84.6990398,5.74020796 83.8318142,5.40983628 C82.0560664,4.70779646 80.1151327,4.70779646 78.339385,5.40983628 C76.6049336,6.07057965 75.2421504,7.43336283 74.5401106,9.1265177 C73.7967743,10.8196726 73.7967743,12.7606062 74.5401106,14.4537611 C75.2834469,16.1469159 76.6462301,17.4684027 78.339385,18.1704425 C80.1151327,18.8724823 82.0560664,18.8724823 83.8318142,18.1704425 C84.6990398,17.8400708 85.4836726,17.3032168 86.1444159,16.6837699 C88.1679425,14.7428363 88.7873894,11.7281947 87.672385,9.1265177 M83.7905177,13.6278319 C83.460146,14.1233894 83.005885,14.536354 82.469031,14.7841327 C82.0147699,14.990615 81.5605088,15.073208 81.0649513,15.1145044 C80.5693938,15.1145044 80.1151327,14.990615 79.6608717,14.7841327 C79.1240177,14.536354 78.6697566,14.1233894 78.3806814,13.6278319 C77.5547522,12.3063451 77.7199381,10.5718938 78.793646,9.45688938 C80.0738363,8.21799558 82.0973628,8.21799558 83.3362566,9.49818584 C83.5840354,9.7459646 83.8318142,10.0763363 83.9557035,10.406708 C84.1621858,10.860969 84.2447788,11.3152301 84.2860752,11.8107876 C84.3273717,12.471531 84.1208894,13.0909779 83.7905177,13.6278319" id="Shape"></path>
                        <path d="M92.2975885,14.9080221 C91.4716593,14.0820929 90.1088761,14.0820929 89.2829469,14.9080221 C89.2829469,14.9080221 89.2829469,14.9080221 89.2829469,14.9080221 L89.2829469,14.9080221 C88.4570177,15.6926549 88.4157212,16.9728451 89.200354,17.8400708 C89.200354,17.8400708 89.200354,17.8400708 89.200354,17.8400708 L89.2829469,17.9226637 C90.1088761,18.7485929 91.4716593,18.7485929 92.2975885,17.9226637 L92.2975885,17.9226637 C93.1235177,17.138031 93.1648142,15.8578407 92.3801814,14.990615 C92.3801814,14.990615 92.3801814,14.990615 92.3801814,14.990615 L92.2975885,14.9080221" id="Path"></path>
                    </g>
                </g>
            </g>
        </g>
    </g>
</svg>